<?xml version="1.0" encoding="UTF-8" standalone="no"?>
<!DOCTYPE svg PUBLIC "-//W3C//DTD SVG 1.1//EN"
 "http://www.w3.org/Graphics/SVG/1.1/DTD/svg11.dtd">
<!-- Generated by graphviz version 2.43.0 (0)
 -->
<!-- Title: packages_sheap Pages: 1 -->
<svg width="5221pt" height="332pt"
 viewBox="0.00 0.00 5220.50 332.00" xmlns="http://www.w3.org/2000/svg" xmlns:xlink="http://www.w3.org/1999/xlink">
<g id="graph0" class="graph" transform="scale(1 1) rotate(0) translate(4 328)">
<title>packages_sheap</title>
<polygon fill="white" stroke="transparent" points="-4,4 -4,-328 5216.5,-328 5216.5,4 -4,4"/>
<!-- sheap -->
<g id="node1" class="node">
<title>sheap</title>
<polygon fill="none" stroke="black" points="80,-180 26,-180 26,-144 80,-144 80,-180"/>
<text text-anchor="middle" x="53" y="-158.3" font-family="Times,serif" font-size="14.00">sheap</text>
</g>
<!-- sheap.DataClass -->
<g id="node2" class="node">
<title>sheap.DataClass</title>
<polygon fill="none" stroke="black" points="1125,-36 1019,-36 1019,0 1125,0 1125,-36"/>
<text text-anchor="middle" x="1072" y="-14.3" font-family="Times,serif" font-size="14.00">sheap.DataClass</text>
</g>
<!-- sheap.DataClass.DataClass -->
<g id="node3" class="node">
<title>sheap.DataClass.DataClass</title>
<polygon fill="none" stroke="black" points="773,-324 609,-324 609,-288 773,-288 773,-324"/>
<text text-anchor="middle" x="691" y="-302.3" font-family="Times,serif" font-size="14.00">sheap.DataClass.DataClass</text>
</g>
<!-- sheap.DataClass.utils -->
<g id="node4" class="node">
<title>sheap.DataClass.utils</title>
<polygon fill="none" stroke="black" points="326.5,-252 193.5,-252 193.5,-216 326.5,-216 326.5,-252"/>
<text text-anchor="middle" x="260" y="-230.3" font-family="Times,serif" font-size="14.00">sheap.DataClass.utils</text>
</g>
<!-- sheap.DataClass.utils&#45;&gt;sheap.DataClass.DataClass -->
<g id="edge1" class="edge">
<title>sheap.DataClass.utils&#45;&gt;sheap.DataClass.DataClass</title>
<path fill="none" stroke="black" d="M326.87,-245.86C399.77,-257.7 516.91,-276.73 598.58,-289.99"/>
<polygon fill="black" stroke="black" points="608.86,-291.66 598.26,-294.5 603.92,-290.86 598.98,-290.06 598.98,-290.06 598.98,-290.06 603.92,-290.86 599.71,-285.61 608.86,-291.66 608.86,-291.66"/>
</g>
<!-- sheap.FunctionsMinimize -->
<g id="node5" class="node">
<title>sheap.FunctionsMinimize</title>
<polygon fill="none" stroke="black" points="2284,-36 2126,-36 2126,0 2284,0 2284,-36"/>
<text text-anchor="middle" x="2205" y="-14.3" font-family="Times,serif" font-size="14.00">sheap.FunctionsMinimize</text>
</g>
<!-- sheap.FunctionsMinimize.MasterMinimizer -->
<g id="node6" class="node">
<title>sheap.FunctionsMinimize.MasterMinimizer</title>
<polygon fill="none" stroke="black" points="1527.5,-180 1268.5,-180 1268.5,-144 1527.5,-144 1527.5,-180"/>
<text text-anchor="middle" x="1398" y="-158.3" font-family="Times,serif" font-size="14.00">sheap.FunctionsMinimize.MasterMinimizer</text>
</g>
<!-- sheap.FunctionsMinimize.utils -->
<g id="node10" class="node">
<title>sheap.FunctionsMinimize.utils</title>
<polygon fill="none" stroke="black" points="1236.5,-252 1051.5,-252 1051.5,-216 1236.5,-216 1236.5,-252"/>
<text text-anchor="middle" x="1144" y="-230.3" font-family="Times,serif" font-size="14.00">sheap.FunctionsMinimize.utils</text>
</g>
<!-- sheap.FunctionsMinimize.MasterMinimizer&#45;&gt;sheap.FunctionsMinimize.utils -->
<g id="edge2" class="edge">
<title>sheap.FunctionsMinimize.MasterMinimizer&#45;&gt;sheap.FunctionsMinimize.utils</title>
<path fill="none" stroke="black" d="M1336.19,-180.03C1299.93,-190.03 1253.94,-202.7 1216.04,-213.15"/>
<polygon fill="black" stroke="black" points="1206.09,-215.89 1214.53,-208.89 1210.91,-214.56 1215.73,-213.23 1215.73,-213.23 1215.73,-213.23 1210.91,-214.56 1216.92,-217.57 1206.09,-215.89 1206.09,-215.89"/>
</g>
<!-- sheap.FunctionsMinimize.functions -->
<g id="node7" class="node">
<title>sheap.FunctionsMinimize.functions</title>
<polygon fill="none" stroke="black" points="1250,-180 1038,-180 1038,-144 1250,-144 1250,-180"/>
<text text-anchor="middle" x="1144" y="-158.3" font-family="Times,serif" font-size="14.00">sheap.FunctionsMinimize.functions</text>
</g>
<!-- sheap.FunctionsMinimize.functions&#45;&gt;sheap.FunctionsMinimize.utils -->
<g id="edge3" class="edge">
<title>sheap.FunctionsMinimize.functions&#45;&gt;sheap.FunctionsMinimize.utils</title>
<path fill="none" stroke="black" d="M1144,-180.3C1144,-188.02 1144,-197.29 1144,-205.89"/>
<polygon fill="black" stroke="black" points="1144,-215.9 1139.5,-205.9 1144,-210.9 1144,-205.9 1144,-205.9 1144,-205.9 1144,-210.9 1148.5,-205.9 1144,-215.9 1144,-215.9"/>
</g>
<!-- sheap.Tools.others -->
<g id="node36" class="node">
<title>sheap.Tools.others</title>
<polygon fill="none" stroke="black" points="1850.5,-252 1731.5,-252 1731.5,-216 1850.5,-216 1850.5,-252"/>
<text text-anchor="middle" x="1791" y="-230.3" font-family="Times,serif" font-size="14.00">sheap.Tools.others</text>
</g>
<!-- sheap.FunctionsMinimize.functions&#45;&gt;sheap.Tools.others -->
<g id="edge4" class="edge">
<title>sheap.FunctionsMinimize.functions&#45;&gt;sheap.Tools.others</title>
<path fill="none" stroke="black" d="M1250.17,-178.76C1253.49,-179.19 1256.77,-179.6 1260,-180 1424.91,-200.3 1619.36,-218.17 1721.03,-227.05"/>
<polygon fill="black" stroke="black" points="1731.18,-227.93 1720.82,-231.55 1726.19,-227.5 1721.21,-227.07 1721.21,-227.07 1721.21,-227.07 1726.19,-227.5 1721.6,-222.58 1731.18,-227.93 1731.18,-227.93"/>
</g>
<!-- sheap.FunctionsMinimize.mmm -->
<g id="node8" class="node">
<title>sheap.FunctionsMinimize.mmm</title>
<polygon fill="none" stroke="black" points="1020,-180 824,-180 824,-144 1020,-144 1020,-180"/>
<text text-anchor="middle" x="922" y="-158.3" font-family="Times,serif" font-size="14.00">sheap.FunctionsMinimize.mmm</text>
</g>
<!-- sheap.FunctionsMinimize.mmm&#45;&gt;sheap.FunctionsMinimize.utils -->
<g id="edge5" class="edge">
<title>sheap.FunctionsMinimize.mmm&#45;&gt;sheap.FunctionsMinimize.utils</title>
<path fill="none" stroke="black" d="M976.02,-180.03C1007.45,-189.94 1047.23,-202.49 1080.19,-212.88"/>
<polygon fill="black" stroke="black" points="1089.73,-215.89 1078.84,-217.17 1084.97,-214.39 1080.2,-212.88 1080.2,-212.88 1080.2,-212.88 1084.97,-214.39 1081.55,-208.59 1089.73,-215.89 1089.73,-215.89"/>
</g>
<!-- sheap.FunctionsMinimize.template_fe_func -->
<g id="node9" class="node">
<title>sheap.FunctionsMinimize.template_fe_func</title>
<polygon fill="none" stroke="black" points="1841.5,-180 1584.5,-180 1584.5,-144 1841.5,-144 1841.5,-180"/>
<text text-anchor="middle" x="1713" y="-158.3" font-family="Times,serif" font-size="14.00">sheap.FunctionsMinimize.template_fe_func</text>
</g>
<!-- sheap.FunctionsMinimize.template_fe_func&#45;&gt;sheap.FunctionsMinimize.utils -->
<g id="edge6" class="edge">
<title>sheap.FunctionsMinimize.template_fe_func&#45;&gt;sheap.FunctionsMinimize.utils</title>
<path fill="none" stroke="black" d="M1584.24,-178.84C1482.23,-191.39 1341.61,-208.69 1246.99,-220.33"/>
<polygon fill="black" stroke="black" points="1236.83,-221.58 1246.21,-215.89 1241.79,-220.97 1246.76,-220.36 1246.76,-220.36 1246.76,-220.36 1241.79,-220.97 1247.31,-224.82 1236.83,-221.58 1236.83,-221.58"/>
</g>
<!-- sheap.FunctionsMinimize.template_fe_func&#45;&gt;sheap.Tools.others -->
<g id="edge7" class="edge">
<title>sheap.FunctionsMinimize.template_fe_func&#45;&gt;sheap.Tools.others</title>
<path fill="none" stroke="black" d="M1732.28,-180.3C1741.92,-188.95 1753.73,-199.55 1764.23,-208.97"/>
<polygon fill="black" stroke="black" points="1771.94,-215.9 1761.49,-212.57 1768.22,-212.56 1764.5,-209.22 1764.5,-209.22 1764.5,-209.22 1768.22,-212.56 1767.5,-205.87 1771.94,-215.9 1771.94,-215.9"/>
</g>
<!-- sheap.HostSubtraction -->
<g id="node11" class="node">
<title>sheap.HostSubtraction</title>
<polygon fill="none" stroke="black" points="2441.5,-36 2302.5,-36 2302.5,0 2441.5,0 2441.5,-36"/>
<text text-anchor="middle" x="2372" y="-14.3" font-family="Times,serif" font-size="14.00">sheap.HostSubtraction</text>
</g>
<!-- sheap.HostSubtraction.HostSubtraction -->
<g id="node12" class="node">
<title>sheap.HostSubtraction.HostSubtraction</title>
<polygon fill="none" stroke="black" points="2506,-108 2276,-108 2276,-72 2506,-72 2506,-108"/>
<text text-anchor="middle" x="2391" y="-86.3" font-family="Times,serif" font-size="14.00">sheap.HostSubtraction.HostSubtraction</text>
</g>
<!-- sheap.HostSubtraction.HostSubtraction&#45;&gt;sheap.FunctionsMinimize.MasterMinimizer -->
<g id="edge8" class="edge">
<title>sheap.HostSubtraction.HostSubtraction&#45;&gt;sheap.FunctionsMinimize.MasterMinimizer</title>
<path fill="none" stroke="black" d="M2275.86,-107.12C2272.88,-107.43 2269.92,-107.72 2267,-108 1960.83,-136.91 1882.69,-121.38 1576,-144 1563.66,-144.91 1550.85,-145.95 1538.02,-147.05"/>
<polygon fill="black" stroke="black" points="1527.73,-147.95 1537.3,-142.6 1532.71,-147.52 1537.69,-147.08 1537.69,-147.08 1537.69,-147.08 1532.71,-147.52 1538.08,-151.57 1527.73,-147.95 1527.73,-147.95"/>
</g>
<!-- sheap.HostSubtraction.utils -->
<g id="node17" class="node">
<title>sheap.HostSubtraction.utils</title>
<polygon fill="none" stroke="black" points="2506,-180 2340,-180 2340,-144 2506,-144 2506,-180"/>
<text text-anchor="middle" x="2423" y="-158.3" font-family="Times,serif" font-size="14.00">sheap.HostSubtraction.utils</text>
</g>
<!-- sheap.HostSubtraction.HostSubtraction&#45;&gt;sheap.HostSubtraction.utils -->
<g id="edge9" class="edge">
<title>sheap.HostSubtraction.HostSubtraction&#45;&gt;sheap.HostSubtraction.utils</title>
<path fill="none" stroke="black" d="M2398.91,-108.3C2402.55,-116.27 2406.95,-125.9 2410.99,-134.74"/>
<polygon fill="black" stroke="black" points="2415.18,-143.9 2406.93,-136.67 2413.1,-139.35 2411.02,-134.8 2411.02,-134.8 2411.02,-134.8 2413.1,-139.35 2415.12,-132.93 2415.18,-143.9 2415.18,-143.9"/>
</g>
<!-- sheap.HostSubtraction.HostSubtraction&#45;&gt;sheap.Tools.others -->
<g id="edge10" class="edge">
<title>sheap.HostSubtraction.HostSubtraction&#45;&gt;sheap.Tools.others</title>
<path fill="none" stroke="black" d="M2371.39,-108.02C2359.6,-118.33 2344.33,-131.8 2331,-144 2313.83,-159.7 2314.13,-170.26 2293,-180 2217.79,-214.66 1980.03,-227.03 1860.72,-231.13"/>
<polygon fill="black" stroke="black" points="1850.59,-231.47 1860.44,-226.64 1855.59,-231.3 1860.59,-231.13 1860.59,-231.13 1860.59,-231.13 1855.59,-231.3 1860.74,-235.63 1850.59,-231.47 1850.59,-231.47"/>
</g>
<!-- sheap.utils -->
<g id="node44" class="node">
<title>sheap.utils</title>
<polygon fill="none" stroke="black" points="2284,-180 2210,-180 2210,-144 2284,-144 2284,-180"/>
<text text-anchor="middle" x="2247" y="-158.3" font-family="Times,serif" font-size="14.00">sheap.utils</text>
</g>
<!-- sheap.HostSubtraction.HostSubtraction&#45;&gt;sheap.utils -->
<g id="edge11" class="edge">
<title>sheap.HostSubtraction.HostSubtraction&#45;&gt;sheap.utils</title>
<path fill="none" stroke="black" d="M2355.77,-108.12C2336.42,-117.53 2312.23,-129.29 2291.57,-139.33"/>
<polygon fill="black" stroke="black" points="2282.36,-143.81 2289.39,-135.39 2286.86,-141.62 2291.36,-139.44 2291.36,-139.44 2291.36,-139.44 2286.86,-141.62 2293.32,-143.49 2282.36,-143.81 2282.36,-143.81"/>
</g>
<!-- sheap.HostSubtraction.deprated -->
<g id="node13" class="node">
<title>sheap.HostSubtraction.deprated</title>
<polygon fill="none" stroke="black" points="2648.5,-36 2459.5,-36 2459.5,0 2648.5,0 2648.5,-36"/>
<text text-anchor="middle" x="2554" y="-14.3" font-family="Times,serif" font-size="14.00">sheap.HostSubtraction.deprated</text>
</g>
<!-- sheap.HostSubtraction.deprated.parameters_star_k_method -->
<g id="node14" class="node">
<title>sheap.HostSubtraction.deprated.parameters_star_k_method</title>
<polygon fill="none" stroke="black" points="3007.5,-36 2666.5,-36 2666.5,0 3007.5,0 3007.5,-36"/>
<text text-anchor="middle" x="2837" y="-14.3" font-family="Times,serif" font-size="14.00">sheap.HostSubtraction.deprated.parameters_star_k_method</text>
</g>
<!-- sheap.HostSubtraction.deprated.pca_method -->
<g id="node15" class="node">
<title>sheap.HostSubtraction.deprated.pca_method</title>
<polygon fill="none" stroke="black" points="3286,-36 3026,-36 3026,0 3286,0 3286,-36"/>
<text text-anchor="middle" x="3156" y="-14.3" font-family="Times,serif" font-size="14.00">sheap.HostSubtraction.deprated.pca_method</text>
</g>
<!-- sheap.HostSubtraction.deprated.start_method -->
<g id="node16" class="node">
<title>sheap.HostSubtraction.deprated.start_method</title>
<polygon fill="none" stroke="black" points="3568,-36 3304,-36 3304,0 3568,0 3568,-36"/>
<text text-anchor="middle" x="3436" y="-14.3" font-family="Times,serif" font-size="14.00">sheap.HostSubtraction.deprated.start_method</text>
</g>
<!-- sheap.MainSheap -->
<g id="node18" class="node">
<title>sheap.MainSheap</title>
<polygon fill="none" stroke="black" points="2107.5,-36 1994.5,-36 1994.5,0 2107.5,0 2107.5,-36"/>
<text text-anchor="middle" x="2051" y="-14.3" font-family="Times,serif" font-size="14.00">sheap.MainSheap</text>
</g>
<!-- sheap.MainSheap&#45;&gt;sheap.DataClass.DataClass -->
<g id="edge12" class="edge">
<title>sheap.MainSheap&#45;&gt;sheap.DataClass.DataClass</title>
<path fill="none" stroke="black" d="M2107.75,-34.26C2110.87,-34.9 2113.97,-35.48 2117,-36 2163.39,-43.9 2507.17,-37.34 2539,-72 2571.47,-107.35 2571.1,-144.31 2539,-180 2479.66,-245.97 1148.6,-291.11 783.11,-302.29"/>
<polygon fill="black" stroke="black" points="773.1,-302.6 782.96,-297.8 778.1,-302.45 783.1,-302.29 783.1,-302.29 783.1,-302.29 778.1,-302.45 783.23,-306.79 773.1,-302.6 773.1,-302.6"/>
</g>
<!-- sheap.MainSheap&#45;&gt;sheap.FunctionsMinimize.functions -->
<g id="edge13" class="edge">
<title>sheap.MainSheap&#45;&gt;sheap.FunctionsMinimize.functions</title>
<path fill="none" stroke="black" d="M1994.24,-23.5C1904.17,-31.04 1723.14,-47.8 1571,-72 1449.79,-91.28 1310.89,-121.82 1225.3,-141.64"/>
<polygon fill="black" stroke="black" points="1215.39,-143.94 1224.11,-137.29 1220.26,-142.81 1225.13,-141.68 1225.13,-141.68 1225.13,-141.68 1220.26,-142.81 1226.15,-146.06 1215.39,-143.94 1215.39,-143.94"/>
</g>
<!-- sheap.RegionFitting.RegionFitting -->
<g id="node25" class="node">
<title>sheap.RegionFitting.RegionFitting</title>
<polygon fill="none" stroke="black" points="898.5,-108 693.5,-108 693.5,-72 898.5,-72 898.5,-108"/>
<text text-anchor="middle" x="796" y="-86.3" font-family="Times,serif" font-size="14.00">sheap.RegionFitting.RegionFitting</text>
</g>
<!-- sheap.MainSheap&#45;&gt;sheap.RegionFitting.RegionFitting -->
<g id="edge14" class="edge">
<title>sheap.MainSheap&#45;&gt;sheap.RegionFitting.RegionFitting</title>
<path fill="none" stroke="black" d="M1994.23,-22.17C1801.32,-32.93 1168.68,-68.21 908.89,-82.7"/>
<polygon fill="black" stroke="black" points="898.68,-83.27 908.42,-78.22 903.67,-82.99 908.67,-82.72 908.67,-82.72 908.67,-82.72 903.67,-82.99 908.92,-87.21 898.68,-83.27 898.68,-83.27"/>
</g>
<!-- sheap.RegionHandler.RegionBuilder -->
<g id="node29" class="node">
<title>sheap.RegionHandler.RegionBuilder</title>
<polygon fill="none" stroke="black" points="2816,-180 2600,-180 2600,-144 2816,-144 2816,-180"/>
<text text-anchor="middle" x="2708" y="-158.3" font-family="Times,serif" font-size="14.00">sheap.RegionHandler.RegionBuilder</text>
</g>
<!-- sheap.MainSheap&#45;&gt;sheap.RegionHandler.RegionBuilder -->
<g id="edge15" class="edge">
<title>sheap.MainSheap&#45;&gt;sheap.RegionHandler.RegionBuilder</title>
<path fill="none" stroke="black" d="M2107.75,-34.29C2110.87,-34.92 2113.97,-35.5 2117,-36 2323.24,-70.2 2389.86,0.36 2586,-72 2624.06,-86.04 2660.69,-115.63 2683.71,-136.84"/>
<polygon fill="black" stroke="black" points="2691.26,-143.95 2680.9,-140.37 2687.62,-140.52 2683.98,-137.1 2683.98,-137.1 2683.98,-137.1 2687.62,-140.52 2687.07,-133.82 2691.26,-143.95 2691.26,-143.95"/>
</g>
<!-- sheap.SuportFunctions.functions -->
<g id="node33" class="node">
<title>sheap.SuportFunctions.functions</title>
<polygon fill="none" stroke="black" points="292,-180 98,-180 98,-144 292,-144 292,-180"/>
<text text-anchor="middle" x="195" y="-158.3" font-family="Times,serif" font-size="14.00">sheap.SuportFunctions.functions</text>
</g>
<!-- sheap.MainSheap&#45;&gt;sheap.SuportFunctions.functions -->
<g id="edge16" class="edge">
<title>sheap.MainSheap&#45;&gt;sheap.SuportFunctions.functions</title>
<path fill="none" stroke="black" d="M1994.44,-20.13C1770.35,-24.75 944.28,-43.41 684,-72 541.1,-87.7 377.09,-120.66 279.97,-141.76"/>
<polygon fill="black" stroke="black" points="269.91,-143.96 278.72,-137.43 274.79,-142.89 279.68,-141.83 279.68,-141.83 279.68,-141.83 274.79,-142.89 280.64,-146.22 269.91,-143.96 269.91,-143.96"/>
</g>
<!-- sheap.MainSheap&#45;&gt;sheap.Tools.others -->
<g id="edge17" class="edge">
<title>sheap.MainSheap&#45;&gt;sheap.Tools.others</title>
<path fill="none" stroke="black" d="M2107.76,-34.24C2110.87,-34.88 2113.97,-35.48 2117,-36 2160.75,-43.56 2485.05,-39.22 2515,-72 2547.38,-107.44 2547.68,-144.84 2515,-180 2471.04,-227.29 2033.56,-232.83 1860.73,-233.16"/>
<polygon fill="black" stroke="black" points="1850.72,-233.17 1860.71,-228.66 1855.72,-233.17 1860.72,-233.16 1860.72,-233.16 1860.72,-233.16 1855.72,-233.17 1860.72,-237.66 1850.72,-233.17 1850.72,-233.17"/>
</g>
<!-- sheap.Tools.unred -->
<g id="node38" class="node">
<title>sheap.Tools.unred</title>
<polygon fill="none" stroke="black" points="2066,-108 1950,-108 1950,-72 2066,-72 2066,-108"/>
<text text-anchor="middle" x="2008" y="-86.3" font-family="Times,serif" font-size="14.00">sheap.Tools.unred</text>
</g>
<!-- sheap.MainSheap&#45;&gt;sheap.Tools.unred -->
<g id="edge18" class="edge">
<title>sheap.MainSheap&#45;&gt;sheap.Tools.unred</title>
<path fill="none" stroke="black" d="M2040.37,-36.3C2035.37,-44.44 2029.31,-54.31 2023.79,-63.3"/>
<polygon fill="black" stroke="black" points="2018.51,-71.9 2019.91,-61.02 2021.12,-67.64 2023.74,-63.37 2023.74,-63.37 2023.74,-63.37 2021.12,-67.64 2027.58,-65.73 2018.51,-71.9 2018.51,-71.9"/>
</g>
<!-- sheap.MainSheap&#45;&gt;sheap.utils -->
<g id="edge19" class="edge">
<title>sheap.MainSheap&#45;&gt;sheap.utils</title>
<path fill="none" stroke="black" d="M2059.36,-36.34C2069.69,-56.14 2089.01,-88.32 2114,-108 2117.69,-110.9 2163.3,-128.82 2200.1,-143.03"/>
<polygon fill="black" stroke="black" points="2209.71,-146.74 2198.76,-147.34 2205.05,-144.94 2200.38,-143.14 2200.38,-143.14 2200.38,-143.14 2205.05,-144.94 2202,-138.94 2209.71,-146.74 2209.71,-146.74"/>
</g>
<!-- sheap.Posterior -->
<g id="node19" class="node">
<title>sheap.Posterior</title>
<polygon fill="none" stroke="black" points="3686,-36 3586,-36 3586,0 3686,0 3686,-36"/>
<text text-anchor="middle" x="3636" y="-14.3" font-family="Times,serif" font-size="14.00">sheap.Posterior</text>
</g>
<!-- sheap.Posterior.ParameterEstimation -->
<g id="node20" class="node">
<title>sheap.Posterior.ParameterEstimation</title>
<polygon fill="none" stroke="black" points="1798,-108 1580,-108 1580,-72 1798,-72 1798,-108"/>
<text text-anchor="middle" x="1689" y="-86.3" font-family="Times,serif" font-size="14.00">sheap.Posterior.ParameterEstimation</text>
</g>
<!-- sheap.Posterior.ParameterEstimation&#45;&gt;sheap.FunctionsMinimize.utils -->
<g id="edge20" class="edge">
<title>sheap.Posterior.ParameterEstimation&#45;&gt;sheap.FunctionsMinimize.utils</title>
<path fill="none" stroke="black" d="M1644.66,-108.04C1623.1,-117.25 1597.31,-129.67 1576,-144 1556.43,-157.16 1558.34,-169.96 1537,-180 1487.09,-203.48 1345.67,-218.33 1246.87,-226.16"/>
<polygon fill="black" stroke="black" points="1236.84,-226.94 1246.46,-221.68 1241.83,-226.55 1246.81,-226.16 1246.81,-226.16 1246.81,-226.16 1241.83,-226.55 1247.16,-230.65 1236.84,-226.94 1236.84,-226.94"/>
</g>
<!-- sheap.Posterior.utils -->
<g id="node23" class="node">
<title>sheap.Posterior.utils</title>
<polygon fill="none" stroke="black" points="2024,-180 1898,-180 1898,-144 2024,-144 2024,-180"/>
<text text-anchor="middle" x="1961" y="-158.3" font-family="Times,serif" font-size="14.00">sheap.Posterior.utils</text>
</g>
<!-- sheap.Posterior.ParameterEstimation&#45;&gt;sheap.Posterior.utils -->
<g id="edge21" class="edge">
<title>sheap.Posterior.ParameterEstimation&#45;&gt;sheap.Posterior.utils</title>
<path fill="none" stroke="black" d="M1755.19,-108.03C1795.37,-118.37 1846.7,-131.59 1888.05,-142.23"/>
<polygon fill="black" stroke="black" points="1897.79,-144.73 1886.99,-146.6 1892.95,-143.49 1888.11,-142.24 1888.11,-142.24 1888.11,-142.24 1892.95,-143.49 1889.23,-137.88 1897.79,-144.73 1897.79,-144.73"/>
</g>
<!-- sheap.Posterior.ParameterEstimation&#45;&gt;sheap.SuportFunctions.functions -->
<g id="edge22" class="edge">
<title>sheap.Posterior.ParameterEstimation&#45;&gt;sheap.SuportFunctions.functions</title>
<path fill="none" stroke="black" d="M1579.9,-93.46C1301.26,-100.01 567.35,-119.04 302.26,-143.97"/>
<polygon fill="black" stroke="black" points="292.27,-144.93 301.79,-139.49 297.25,-144.45 302.22,-143.97 302.22,-143.97 302.22,-143.97 297.25,-144.45 302.66,-148.45 292.27,-144.93 292.27,-144.93"/>
</g>
<!-- sheap.Posterior.ParameterEstimation&#45;&gt;sheap.Tools.others -->
<g id="edge23" class="edge">
<title>sheap.Posterior.ParameterEstimation&#45;&gt;sheap.Tools.others</title>
<path fill="none" stroke="black" d="M1798.31,-106.23C1818.93,-114.2 1838.06,-126.15 1851,-144 1860.39,-156.95 1857.58,-165.41 1851,-180 1845.82,-191.48 1836.79,-201.48 1827.28,-209.6"/>
<polygon fill="black" stroke="black" points="1819.26,-215.97 1824.29,-206.23 1823.18,-212.86 1827.09,-209.75 1827.09,-209.75 1827.09,-209.75 1823.18,-212.86 1829.89,-213.28 1819.26,-215.97 1819.26,-215.97"/>
</g>
<!-- sheap.Posterior.line_handling -->
<g id="node21" class="node">
<title>sheap.Posterior.line_handling</title>
<polygon fill="none" stroke="black" points="3881.5,-36 3704.5,-36 3704.5,0 3881.5,0 3881.5,-36"/>
<text text-anchor="middle" x="3793" y="-14.3" font-family="Times,serif" font-size="14.00">sheap.Posterior.line_handling</text>
</g>
<!-- sheap.Posterior.monte_carlo -->
<g id="node22" class="node">
<title>sheap.Posterior.monte_carlo</title>
<polygon fill="none" stroke="black" points="4070.5,-36 3899.5,-36 3899.5,0 4070.5,0 4070.5,-36"/>
<text text-anchor="middle" x="3985" y="-14.3" font-family="Times,serif" font-size="14.00">sheap.Posterior.monte_carlo</text>
</g>
<!-- sheap.RegionFitting -->
<g id="node24" class="node">
<title>sheap.RegionFitting</title>
<polygon fill="none" stroke="black" points="4215,-36 4089,-36 4089,0 4215,0 4215,-36"/>
<text text-anchor="middle" x="4152" y="-14.3" font-family="Times,serif" font-size="14.00">sheap.RegionFitting</text>
</g>
<!-- sheap.RegionFitting.RegionFitting&#45;&gt;sheap.DataClass.DataClass -->
<g id="edge24" class="edge">
<title>sheap.RegionFitting.RegionFitting&#45;&gt;sheap.DataClass.DataClass</title>
<path fill="none" stroke="black" d="M693.5,-107.94C654.51,-116.65 616.64,-128.69 605,-144 571.12,-188.56 624.94,-248.28 661.56,-281.02"/>
<polygon fill="black" stroke="black" points="669.53,-287.97 659.04,-284.79 665.76,-284.69 662,-281.4 662,-281.4 662,-281.4 665.76,-284.69 664.95,-278.01 669.53,-287.97 669.53,-287.97"/>
</g>
<!-- sheap.RegionFitting.RegionFitting&#45;&gt;sheap.FunctionsMinimize.MasterMinimizer -->
<g id="edge25" class="edge">
<title>sheap.RegionFitting.RegionFitting&#45;&gt;sheap.FunctionsMinimize.MasterMinimizer</title>
<path fill="none" stroke="black" d="M898.55,-102.51C990.01,-112.83 1127.85,-128.51 1258,-143.89"/>
<polygon fill="black" stroke="black" points="1268.15,-145.09 1257.69,-148.38 1263.19,-144.5 1258.22,-143.91 1258.22,-143.91 1258.22,-143.91 1263.19,-144.5 1258.75,-139.44 1268.15,-145.09 1268.15,-145.09"/>
</g>
<!-- sheap.RegionFitting.RegionFitting&#45;&gt;sheap.FunctionsMinimize.functions -->
<g id="edge26" class="edge">
<title>sheap.RegionFitting.RegionFitting&#45;&gt;sheap.FunctionsMinimize.functions</title>
<path fill="none" stroke="black" d="M880.69,-108.03C931.62,-118.28 996.57,-131.34 1049.22,-141.93"/>
<polygon fill="black" stroke="black" points="1059.24,-143.95 1048.55,-146.39 1054.34,-142.96 1049.43,-141.98 1049.43,-141.98 1049.43,-141.98 1054.34,-142.96 1050.32,-137.57 1059.24,-143.95 1059.24,-143.95"/>
</g>
<!-- sheap.RegionFitting.RegionFitting&#45;&gt;sheap.FunctionsMinimize.utils -->
<g id="edge27" class="edge">
<title>sheap.RegionFitting.RegionFitting&#45;&gt;sheap.FunctionsMinimize.utils</title>
<path fill="none" stroke="black" d="M794.4,-108.12C793.54,-128.32 795.53,-161.49 815,-180 846.88,-210.31 956.98,-223.31 1041.12,-228.87"/>
<polygon fill="black" stroke="black" points="1051.24,-229.51 1040.98,-233.37 1046.25,-229.2 1041.26,-228.88 1041.26,-228.88 1041.26,-228.88 1046.25,-229.2 1041.55,-224.39 1051.24,-229.51 1051.24,-229.51"/>
</g>
<!-- sheap.RegionFitting.uncertainty_functions -->
<g id="node26" class="node">
<title>sheap.RegionFitting.uncertainty_functions</title>
<polygon fill="none" stroke="black" points="558,-180 310,-180 310,-144 558,-144 558,-180"/>
<text text-anchor="middle" x="434" y="-158.3" font-family="Times,serif" font-size="14.00">sheap.RegionFitting.uncertainty_functions</text>
</g>
<!-- sheap.RegionFitting.RegionFitting&#45;&gt;sheap.RegionFitting.uncertainty_functions -->
<g id="edge28" class="edge">
<title>sheap.RegionFitting.RegionFitting&#45;&gt;sheap.RegionFitting.uncertainty_functions</title>
<path fill="none" stroke="black" d="M707.91,-108.03C654.81,-118.3 587.08,-131.4 532.25,-142"/>
<polygon fill="black" stroke="black" points="522.17,-143.95 531.14,-137.63 527.08,-143 531.99,-142.05 531.99,-142.05 531.99,-142.05 527.08,-143 532.85,-146.47 522.17,-143.95 522.17,-143.95"/>
</g>
<!-- sheap.RegionFitting.utils -->
<g id="node27" class="node">
<title>sheap.RegionFitting.utils</title>
<polygon fill="none" stroke="black" points="767.5,-180 614.5,-180 614.5,-144 767.5,-144 767.5,-180"/>
<text text-anchor="middle" x="691" y="-158.3" font-family="Times,serif" font-size="14.00">sheap.RegionFitting.utils</text>
</g>
<!-- sheap.RegionFitting.RegionFitting&#45;&gt;sheap.RegionFitting.utils -->
<g id="edge29" class="edge">
<title>sheap.RegionFitting.RegionFitting&#45;&gt;sheap.RegionFitting.utils</title>
<path fill="none" stroke="black" d="M770.31,-108.12C756.71,-117.19 739.83,-128.45 725.14,-138.24"/>
<polygon fill="black" stroke="black" points="716.78,-143.81 722.61,-134.52 720.94,-141.04 725.11,-138.26 725.11,-138.26 725.11,-138.26 720.94,-141.04 727.6,-142.01 716.78,-143.81 716.78,-143.81"/>
</g>
<!-- sheap.RegionFitting.RegionFitting&#45;&gt;sheap.SuportFunctions.functions -->
<g id="edge30" class="edge">
<title>sheap.RegionFitting.RegionFitting&#45;&gt;sheap.SuportFunctions.functions</title>
<path fill="none" stroke="black" d="M693.43,-100.4C595.54,-109.74 443.67,-125.17 302.18,-143.88"/>
<polygon fill="black" stroke="black" points="292.02,-145.23 301.34,-139.45 296.97,-144.57 301.93,-143.91 301.93,-143.91 301.93,-143.91 296.97,-144.57 302.52,-148.37 292.02,-145.23 292.02,-145.23"/>
</g>
<!-- sheap.RegionFitting.RegionFitting&#45;&gt;sheap.utils -->
<g id="edge31" class="edge">
<title>sheap.RegionFitting.RegionFitting&#45;&gt;sheap.utils</title>
<path fill="none" stroke="black" d="M898.73,-93C1194.3,-99.02 2035.67,-118.05 2199.66,-144.34"/>
<polygon fill="black" stroke="black" points="2209.88,-146.16 2199.24,-148.84 2204.96,-145.28 2200.04,-144.41 2200.04,-144.41 2200.04,-144.41 2204.96,-145.28 2200.83,-139.98 2209.88,-146.16 2209.88,-146.16"/>
</g>
<!-- sheap.RegionFitting.utils&#45;&gt;sheap.DataClass.DataClass -->
<g id="edge32" class="edge">
<title>sheap.RegionFitting.utils&#45;&gt;sheap.DataClass.DataClass</title>
<path fill="none" stroke="black" d="M691,-180.13C691,-204.33 691,-248.79 691,-277.61"/>
<polygon fill="black" stroke="black" points="691,-287.81 686.5,-277.81 691,-282.81 691,-277.81 691,-277.81 691,-277.81 691,-282.81 695.5,-277.81 691,-287.81 691,-287.81"/>
</g>
<!-- sheap.RegionFitting.utils&#45;&gt;sheap.Tools.others -->
<g id="edge33" class="edge">
<title>sheap.RegionFitting.utils&#45;&gt;sheap.Tools.others</title>
<path fill="none" stroke="black" d="M767.62,-174.5C783.27,-176.57 799.64,-178.53 815,-180 1153.86,-212.37 1560.93,-226.55 1721.26,-231.18"/>
<polygon fill="black" stroke="black" points="1731.46,-231.47 1721.33,-235.68 1726.46,-231.32 1721.46,-231.18 1721.46,-231.18 1721.46,-231.18 1726.46,-231.32 1721.59,-226.68 1731.46,-231.47 1731.46,-231.47"/>
</g>
<!-- sheap.RegionHandler -->
<g id="node28" class="node">
<title>sheap.RegionHandler</title>
<polygon fill="none" stroke="black" points="4367,-36 4233,-36 4233,0 4367,0 4367,-36"/>
<text text-anchor="middle" x="4300" y="-14.3" font-family="Times,serif" font-size="14.00">sheap.RegionHandler</text>
</g>
<!-- sheap.RegionHandler.RegionBuilder&#45;&gt;sheap.DataClass.DataClass -->
<g id="edge34" class="edge">
<title>sheap.RegionHandler.RegionBuilder&#45;&gt;sheap.DataClass.DataClass</title>
<path fill="none" stroke="black" d="M2733.37,-180.01C2758.61,-198.92 2790.71,-229.73 2769,-252 2733.87,-288.04 1181.21,-301.52 783.19,-304.39"/>
<polygon fill="black" stroke="black" points="773.16,-304.46 783.13,-299.89 778.16,-304.42 783.16,-304.39 783.16,-304.39 783.16,-304.39 778.16,-304.42 783.19,-308.89 773.16,-304.46 773.16,-304.46"/>
</g>
<!-- sheap.RegionHandler.utils -->
<g id="node30" class="node">
<title>sheap.RegionHandler.utils</title>
<polygon fill="none" stroke="black" points="2760,-252 2600,-252 2600,-216 2760,-216 2760,-252"/>
<text text-anchor="middle" x="2680" y="-230.3" font-family="Times,serif" font-size="14.00">sheap.RegionHandler.utils</text>
</g>
<!-- sheap.RegionHandler.RegionBuilder&#45;&gt;sheap.RegionHandler.utils -->
<g id="edge35" class="edge">
<title>sheap.RegionHandler.RegionBuilder&#45;&gt;sheap.RegionHandler.utils</title>
<path fill="none" stroke="black" d="M2701.08,-180.3C2697.93,-188.19 2694.12,-197.7 2690.62,-206.45"/>
<polygon fill="black" stroke="black" points="2686.84,-215.9 2686.38,-204.94 2688.7,-211.25 2690.56,-206.61 2690.56,-206.61 2690.56,-206.61 2688.7,-211.25 2694.73,-208.28 2686.84,-215.9 2686.84,-215.9"/>
</g>
<!-- sheap.RegionHandler.utils&#45;&gt;sheap.DataClass.DataClass -->
<g id="edge36" class="edge">
<title>sheap.RegionHandler.utils&#45;&gt;sheap.DataClass.DataClass</title>
<path fill="none" stroke="black" d="M2599.86,-250.33C2595.18,-250.96 2590.54,-251.53 2586,-252 2230.38,-288.92 1113.45,-301.35 783.6,-304.26"/>
<polygon fill="black" stroke="black" points="773.13,-304.35 783.09,-299.77 778.13,-304.31 783.13,-304.27 783.13,-304.27 783.13,-304.27 778.13,-304.31 783.17,-308.77 773.13,-304.35 773.13,-304.35"/>
</g>
<!-- sheap.SuportData -->
<g id="node31" class="node">
<title>sheap.SuportData</title>
<polygon fill="none" stroke="black" points="4498.5,-36 4385.5,-36 4385.5,0 4498.5,0 4498.5,-36"/>
<text text-anchor="middle" x="4442" y="-14.3" font-family="Times,serif" font-size="14.00">sheap.SuportData</text>
</g>
<!-- sheap.SuportFunctions -->
<g id="node32" class="node">
<title>sheap.SuportFunctions</title>
<polygon fill="none" stroke="black" points="4657,-36 4517,-36 4517,0 4657,0 4657,-36"/>
<text text-anchor="middle" x="4587" y="-14.3" font-family="Times,serif" font-size="14.00">sheap.SuportFunctions</text>
</g>
<!-- sheap.SuportFunctions.functions&#45;&gt;sheap.DataClass.DataClass -->
<g id="edge37" class="edge">
<title>sheap.SuportFunctions.functions&#45;&gt;sheap.DataClass.DataClass</title>
<path fill="none" stroke="black" d="M254.83,-180.13C347.12,-206.55 523.76,-257.12 621.55,-285.12"/>
<polygon fill="black" stroke="black" points="631.35,-287.92 620.49,-289.5 626.54,-286.55 621.73,-285.17 621.73,-285.17 621.73,-285.17 626.54,-286.55 622.97,-280.84 631.35,-287.92 631.35,-287.92"/>
</g>
<!-- sheap.SuportFunctions.functions&#45;&gt;sheap.DataClass.utils -->
<g id="edge38" class="edge">
<title>sheap.SuportFunctions.functions&#45;&gt;sheap.DataClass.utils</title>
<path fill="none" stroke="black" d="M211.07,-180.3C218.94,-188.78 228.56,-199.14 237.17,-208.42"/>
<polygon fill="black" stroke="black" points="244.12,-215.9 234.02,-211.63 240.72,-212.23 237.31,-208.57 237.31,-208.57 237.31,-208.57 240.72,-212.23 240.61,-205.51 244.12,-215.9 244.12,-215.9"/>
</g>
<!-- sheap.SuportFunctions.functions&#45;&gt;sheap.FunctionsMinimize.utils -->
<g id="edge39" class="edge">
<title>sheap.SuportFunctions.functions&#45;&gt;sheap.FunctionsMinimize.utils</title>
<path fill="none" stroke="black" d="M292.28,-178.97C295.22,-179.34 298.13,-179.68 301,-180 566.97,-209.62 882.13,-223.94 1041.19,-229.73"/>
<polygon fill="black" stroke="black" points="1051.44,-230.1 1041.28,-234.23 1046.44,-229.92 1041.45,-229.74 1041.45,-229.74 1041.45,-229.74 1046.44,-229.92 1041.61,-225.24 1051.44,-230.1 1051.44,-230.1"/>
</g>
<!-- sheap.Tools -->
<g id="node34" class="node">
<title>sheap.Tools</title>
<polygon fill="none" stroke="black" points="4757,-36 4675,-36 4675,0 4757,0 4757,-36"/>
<text text-anchor="middle" x="4716" y="-14.3" font-family="Times,serif" font-size="14.00">sheap.Tools</text>
</g>
<!-- sheap.Tools.interp_tools -->
<g id="node35" class="node">
<title>sheap.Tools.interp_tools</title>
<polygon fill="none" stroke="black" points="2192,-180 2042,-180 2042,-144 2192,-144 2192,-180"/>
<text text-anchor="middle" x="2117" y="-158.3" font-family="Times,serif" font-size="14.00">sheap.Tools.interp_tools</text>
</g>
<!-- sheap.Tools.paths_func -->
<g id="node37" class="node">
<title>sheap.Tools.paths_func</title>
<polygon fill="none" stroke="black" points="4920.5,-36 4775.5,-36 4775.5,0 4920.5,0 4920.5,-36"/>
<text text-anchor="middle" x="4848" y="-14.3" font-family="Times,serif" font-size="14.00">sheap.Tools.paths_func</text>
</g>
<!-- sheap.Tools.unred&#45;&gt;sheap.Tools.interp_tools -->
<g id="edge40" class="edge">
<title>sheap.Tools.unred&#45;&gt;sheap.Tools.interp_tools</title>
<path fill="none" stroke="black" d="M2034.66,-108.12C2048.78,-117.19 2066.31,-128.45 2081.56,-138.24"/>
<polygon fill="black" stroke="black" points="2090.23,-143.81 2079.39,-142.19 2086.03,-141.11 2081.82,-138.41 2081.82,-138.41 2081.82,-138.41 2086.03,-141.11 2084.25,-134.62 2090.23,-143.81 2090.23,-143.81"/>
</g>
<!-- sheap.Tools.vocalisations -->
<g id="node39" class="node">
<title>sheap.Tools.vocalisations</title>
<polygon fill="none" stroke="black" points="5095,-36 4939,-36 4939,0 5095,0 5095,-36"/>
<text text-anchor="middle" x="5017" y="-14.3" font-family="Times,serif" font-size="14.00">sheap.Tools.vocalisations</text>
</g>
<!-- sheap.__main__ -->
<g id="node40" class="node">
<title>sheap.__main__</title>
<polygon fill="none" stroke="black" points="106,-36 0,-36 0,0 106,0 106,-36"/>
<text text-anchor="middle" x="53" y="-14.3" font-family="Times,serif" font-size="14.00">sheap.__main__</text>
</g>
<!-- sheap.cli -->
<g id="node42" class="node">
<title>sheap.cli</title>
<polygon fill="none" stroke="black" points="85.5,-108 20.5,-108 20.5,-72 85.5,-72 85.5,-108"/>
<text text-anchor="middle" x="53" y="-86.3" font-family="Times,serif" font-size="14.00">sheap.cli</text>
</g>
<!-- sheap.__main__&#45;&gt;sheap.cli -->
<g id="edge41" class="edge">
<title>sheap.__main__&#45;&gt;sheap.cli</title>
<path fill="none" stroke="black" d="M53,-36.3C53,-44.02 53,-53.29 53,-61.89"/>
<polygon fill="black" stroke="black" points="53,-71.9 48.5,-61.9 53,-66.9 53,-61.9 53,-61.9 53,-61.9 53,-66.9 57.5,-61.9 53,-71.9 53,-71.9"/>
</g>
<!-- sheap._logging -->
<g id="node41" class="node">
<title>sheap._logging</title>
<polygon fill="none" stroke="black" points="5212.5,-36 5113.5,-36 5113.5,0 5212.5,0 5212.5,-36"/>
<text text-anchor="middle" x="5163" y="-14.3" font-family="Times,serif" font-size="14.00">sheap._logging</text>
</g>
<!-- sheap.cli&#45;&gt;sheap -->
<g id="edge42" class="edge">
<title>sheap.cli&#45;&gt;sheap</title>
<path fill="none" stroke="black" d="M53,-108.3C53,-116.02 53,-125.29 53,-133.89"/>
<polygon fill="black" stroke="black" points="53,-143.9 48.5,-133.9 53,-138.9 53,-133.9 53,-133.9 53,-133.9 53,-138.9 57.5,-133.9 53,-143.9 53,-143.9"/>
</g>
<!-- sheap.spectra_readers -->
<g id="node43" class="node">
<title>sheap.spectra_readers</title>
<polygon fill="none" stroke="black" points="2257.5,-108 2122.5,-108 2122.5,-72 2257.5,-72 2257.5,-108"/>
<text text-anchor="middle" x="2190" y="-86.3" font-family="Times,serif" font-size="14.00">sheap.spectra_readers</text>
</g>
<!-- sheap.spectra_readers&#45;&gt;sheap.utils -->
<g id="edge43" class="edge">
<title>sheap.spectra_readers&#45;&gt;sheap.utils</title>
<path fill="none" stroke="black" d="M2204.09,-108.3C2210.92,-116.7 2219.26,-126.93 2226.76,-136.14"/>
<polygon fill="black" stroke="black" points="2233.07,-143.9 2223.27,-138.98 2229.92,-140.02 2226.76,-136.14 2226.76,-136.14 2226.76,-136.14 2229.92,-140.02 2230.25,-133.3 2233.07,-143.9 2233.07,-143.9"/>
</g>
</g>
</svg>
